<?xml version="1.0" standalone="no"?>
<!DOCTYPE svg PUBLIC "-//W3C//DTD SVG 20010904//EN"
 "http://www.w3.org/TR/2001/REC-SVG-20010904/DTD/svg10.dtd">
<svg version="1.0" xmlns="http://www.w3.org/2000/svg"
 width="746.000000pt" height="746.000000pt" viewBox="0 0 746.000000 746.000000"
 preserveAspectRatio="xMidYMid meet">
<metadata>
Created by potrace 1.14, written by Peter Selinger 2001-2017
</metadata>
<g transform="translate(0.000000,746.000000) scale(0.100000,-0.100000)"
fill="#000000" stroke="none">
<path d="M6480 6859 c-41 -10 -115 -39 -165 -63 -127 -63 -204 -132 -342 -306
-15 -19 -38 -46 -49 -60 -26 -30 -134 -159 -184 -220 -19 -23 -42 -50 -50 -60
-19 -23 -82 -98 -109 -130 -11 -14 -26 -32 -34 -40 -7 -8 -44 -53 -82 -100
-39 -46 -77 -92 -85 -102 -17 -19 -21 -23 -92 -111 -28 -34 -59 -71 -70 -82
-10 -11 -46 -54 -79 -95 -34 -41 -66 -79 -73 -85 -6 -5 -24 -28 -41 -50 -16
-22 -39 -50 -50 -61 -11 -12 -36 -41 -55 -65 -59 -73 -200 -243 -219 -264 -10
-11 -75 -90 -146 -175 -257 -309 -494 -593 -523 -628 -11 -13 -35 -42 -54 -64
-18 -23 -60 -74 -93 -113 -33 -40 -78 -94 -100 -120 -22 -27 -45 -53 -50 -59
-6 -6 -40 -47 -75 -91 -36 -44 -67 -82 -70 -85 -3 -3 -39 -45 -80 -95 -41 -49
-79 -95 -85 -101 -5 -6 -22 -26 -37 -45 -14 -19 -35 -45 -47 -58 -43 -50 -50
-125 -16 -177 38 -58 124 -81 184 -49 23 11 127 127 231 259 8 10 22 26 31 35
8 9 33 39 55 66 21 28 44 55 50 60 9 8 58 67 269 324 11 13 27 32 35 40 8 9
33 39 55 66 22 27 100 121 174 210 73 88 150 180 171 205 21 25 74 89 119 144
45 54 87 104 94 110 7 7 26 30 42 51 32 41 82 101 150 180 24 28 54 64 66 80
13 17 48 59 79 95 30 36 75 89 99 118 47 56 52 59 73 40 7 -7 54 -47 103 -88
50 -41 92 -77 95 -80 3 -3 45 -39 95 -80 49 -41 101 -85 115 -96 108 -92 234
-197 282 -236 l57 -46 -136 -164 c-194 -233 -207 -249 -218 -262 -36 -39 -168
-201 -181 -221 -21 -32 -21 -102 -1 -141 21 -41 55 -62 110 -69 60 -8 92 9
154 82 26 32 50 60 53 63 3 3 37 43 75 90 38 47 79 96 92 110 12 14 61 72 108
130 48 58 97 116 108 130 12 14 42 50 67 80 25 30 47 57 50 60 3 3 25 30 50
60 25 30 50 61 57 68 7 7 29 34 50 60 21 26 41 49 44 52 3 3 63 75 133 160 70
85 138 167 151 181 12 14 55 66 95 115 40 49 75 91 79 94 3 3 35 41 71 85 36
44 72 87 80 96 46 49 180 219 180 228 0 6 4 11 8 11 20 0 113 227 121 295 1 3
2 6 2 8 7 14 5 205 -3 256 -16 106 -79 259 -137 335 -27 37 -192 196 -202 196
-5 0 -26 11 -47 24 -48 32 -151 72 -230 90 -90 21 -260 18 -352 -5z m250 -273
c25 -2 55 -7 66 -9 34 -8 129 -50 132 -59 2 -4 9 -8 17 -8 7 0 39 -26 71 -57
77 -75 135 -184 150 -283 7 -41 2 -195 -6 -195 -1 0 -3 -10 -6 -22 -11 -61
-69 -153 -176 -278 -9 -11 -26 -30 -36 -43 -11 -13 -35 -42 -54 -64 -123 -153
-201 -240 -207 -231 -13 18 -148 131 -171 144 -61 33 -128 22 -176 -29 -33
-35 -39 -56 -35 -117 4 -44 22 -67 120 -149 l89 -74 -31 -38 c-18 -22 -36 -44
-42 -50 -5 -6 -53 -63 -105 -126 -103 -126 -99 -124 -155 -71 -17 15 -53 46
-80 68 -27 21 -60 49 -74 62 -14 12 -30 26 -36 31 -132 106 -511 428 -513 436
-1 7 10 26 25 43 15 18 37 44 48 59 11 15 31 39 45 53 14 14 43 49 65 76 59
74 78 95 85 95 5 0 160 -126 170 -139 10 -12 96 -78 115 -88 11 -6 41 -10 67
-10 82 -1 147 76 135 162 -6 43 -25 67 -117 146 -41 35 -77 66 -80 69 -3 3
-26 22 -52 43 -27 21 -48 41 -48 45 0 6 65 87 154 192 11 14 43 52 71 85 27
33 52 62 55 65 3 3 22 26 43 52 66 83 119 128 192 164 38 19 81 37 95 40 72
15 107 20 125 17 11 -1 40 -4 65 -7z"/>
<path d="M628 4075 c-188 -38 -384 -170 -489 -330 -21 -33 -43 -65 -49 -72 -5
-7 -10 -16 -10 -21 0 -4 -9 -27 -20 -50 -32 -66 -58 -197 -58 -292 0 -169 41
-308 131 -445 45 -67 417 -449 459 -471 98 -51 220 40 203 151 -6 41 -20 58
-203 243 -211 214 -208 210 -251 292 -47 91 -66 214 -46 312 11 56 47 148 58
148 6 0 7 3 4 7 -8 7 53 84 103 130 39 36 149 96 195 108 58 14 70 15 126 16
82 2 165 -19 242 -58 60 -32 148 -116 820 -788 413 -413 762 -757 775 -764 36
-19 63 -22 104 -10 42 11 63 29 128 109 25 30 55 66 67 80 52 59 231 278 252
308 25 36 33 92 19 133 -20 59 -102 104 -160 88 -16 -4 -28 -4 -28 -1 0 7 -99
-96 -147 -154 -18 -22 -65 -78 -104 -126 l-71 -87 -686 685 c-377 377 -709
703 -737 724 -169 125 -413 177 -627 135z"/>
<path d="M5221 3512 c-45 -7 -84 -44 -233 -227 -14 -17 -214 -258 -266 -320
-9 -11 -39 -47 -67 -80 -27 -33 -54 -65 -60 -72 -12 -13 -73 -87 -97 -117 -10
-11 -23 -27 -29 -34 -6 -7 -34 -41 -62 -75 -28 -34 -59 -71 -68 -82 -10 -11
-54 -65 -100 -120 -46 -55 -86 -102 -89 -105 -3 -3 -23 -27 -45 -55 -21 -27
-46 -57 -55 -65 -8 -8 -27 -31 -42 -50 -15 -19 -37 -47 -50 -61 -13 -15 -48
-57 -78 -94 -30 -38 -65 -78 -77 -91 -13 -13 -23 -26 -23 -29 0 -3 -8 -13 -17
-23 -20 -20 -67 -75 -116 -136 -37 -46 -137 -166 -152 -182 -5 -6 -26 -30 -45
-54 -19 -24 -40 -48 -45 -54 -6 -6 -30 -36 -55 -66 -25 -30 -49 -60 -55 -66
-5 -6 -26 -30 -45 -54 -148 -184 -206 -242 -281 -281 -179 -91 -399 -73 -544
46 -22 18 -313 305 -646 638 -394 395 -617 611 -640 621 -68 27 -148 -5 -177
-72 -22 -51 -20 -92 9 -137 30 -48 1248 -1258 1308 -1299 74 -52 182 -100 271
-121 140 -34 341 -24 437 20 17 8 34 15 38 15 10 0 99 43 105 51 3 3 20 14 38
23 51 26 176 155 299 306 15 19 38 46 50 60 11 14 71 86 133 160 144 174 183
220 195 234 6 6 55 65 110 131 54 66 104 125 110 131 5 7 24 29 40 49 17 21
35 43 40 49 6 6 40 47 75 91 36 43 72 86 80 95 22 24 60 69 105 125 22 28 50
61 61 75 12 14 61 72 109 130 48 58 96 116 108 130 12 14 79 95 150 180 71 85
138 166 150 180 13 14 54 63 92 110 38 47 72 87 75 90 4 3 37 43 76 90 38 47
74 90 80 95 36 34 77 100 81 135 13 97 -69 177 -166 162z"/>
</g>
</svg>
